<svg xmlns="http://www.w3.org/2000/svg" viewBox="0 0 64 64">
  <rect width="64" height="64" rx="18" fill="#ffffff"/>
  <circle cx="32" cy="32" r="24" fill="#fce4ec"/>
  <path
    d="M32 13c8.7 0 14.5 5.6 14.5 13.1 0 4.3-2 7.6-4.4 10.6-1.7 2.1-3 4.6-3.5 7.2l-1.6 7.8c-.6 2.9-2.3 4.3-5 4.3s-4.4-1.4-5-4.3l-1.6-7.8c-.5-2.6-1.8-5.1-3.5-7.2-2.4-3-4.4-6.3-4.4-10.6C17.5 18.6 23.3 13 32 13z"
    fill="#e1bee7"
    stroke="#8d5aa0"
    stroke-width="2.8"
    stroke-linejoin="round"
  />
  <path
    d="M25 26.5c1.8-1.6 3.9-2.4 7-2.4s5.2.8 7 2.4"
    fill="none"
    stroke="#8d5aa0"
    stroke-width="2"
    stroke-linecap="round"
  />
  <circle cx="27" cy="23.5" r="1.9" fill="#8d5aa0"/>
  <circle cx="37" cy="23.5" r="1.9" fill="#8d5aa0"/>
</svg>
